<mxfile host="app.diagrams.net" modified="2024-01-29T23:39:58.169Z" agent="Mozilla/5.0 (Windows NT 10.0; Win64; x64) AppleWebKit/537.36 (KHTML, like Gecko) Chrome/121.0.0.0 Safari/537.36" version="23.0.2" etag="jzSPia0FzGClNffMByW2" type="github">
  <diagram name="Pagina-1" id="qhU8wnmdOAKKkHcsEv-U">
    <mxGraphModel>
      <root>
        <mxCell id="0" />
        <mxCell id="1" parent="0" />
      </root>
    </mxGraphModel>
  </diagram>
</mxfile>
